<svg xmlns="http://www.w3.org/2000/svg" viewBox="0 0 198.27 199.15"><defs><style>.cls-1{fill:#fff;}.cls-2{fill:#231f20;}</style></defs><g id="Layer_2" data-name="Layer 2"><path class="cls-1" d="M89.35,156.56l34.25,12.27c2.89,1,5.86,2.08,8.91,2s6.25-1.61,7.6-4.49c1.86-4-.49-8.88-3.86-11.53S128.69,151,124.92,149a31.42,31.42,0,0,1-13.47-13.73c-.74-1.47-1.39-3.19-.85-4.76a6.54,6.54,0,0,1,2.37-2.77q5.32-4.17,10.88-8c3.38-2.31,6.9-4.6,9.36-8s3.65-8.13,1.81-11.91c-5-1-10,1.41-14.78,3.39a88.57,88.57,0,0,1-18.18,5.35c-4.22.76-8.59,1.2-12.75.12s-8.1-3.88-9.69-8.06c-.84-2.2-1-4.67-2.12-6.73s-3.79-3.55-5.61-2.16a5.11,5.11,0,0,0-1.36,1.84,26.13,26.13,0,0,0-2.58,15c.29,2.26.85,4.72-.2,6.71-.87,1.64-2.6,2.52-4.23,3.3-7.13,3.39-14.38,6.83-22.12,8.06s-16.18,0-22.3-5.14c-3.15,2.4-3,7.73-.61,11s6.09,5,9.68,6.58c6.32,2.79,12.76,5.62,19.58,6.34a11.32,11.32,0,0,1,4.65,1c2.68,1.56,3.48,5.39,2.7,8.5s-2.72,5.72-4.47,8.37A74.09,74.09,0,0,0,42,181.22c-1.16,3.55-1.89,8,.6,10.64,1.88,2,5,2.22,7.55,1.2s4.55-3,6.51-4.95l32-31.69" transform="translate(-2.14 0.15)"/><path class="cls-1" d="M89.06,156.72l33.08,11.85c4.2,1.5,8.78,3.34,13.26,1.88,3.67-1.19,6.19-4.43,5.65-8.39-.61-4.38-4-7.52-7.72-9.48-4.38-2.3-9-3.73-12.94-6.84a31.11,31.11,0,0,1-8.76-10.92,6.39,6.39,0,0,1-.81-3.74,5.35,5.35,0,0,1,2.29-3.17c2.19-1.74,4.43-3.4,6.7-5,6.74-4.88,18.1-10.59,16.32-20.74-.1-.54-.32-2.09-.82-2.39-.72-.44-2.41-.29-3.24-.25a22.56,22.56,0,0,0-6.63,1.5c-2.53.92-5,2.07-7.49,3q-4.07,1.56-8.27,2.72c-9.08,2.49-23.08,5.52-28.9-4.49-2-3.4-1.39-9.21-5.67-10.89-4-1.56-5.69,3.51-6.58,6.4a26.77,26.77,0,0,0-1.14,7.43c0,2.43.58,4.78.6,7.19,0,3.07-1.75,4.73-4.36,6s-5.07,2.42-7.64,3.54c-9.48,4.12-20.31,7.12-30.37,3.15a23,23,0,0,1-6.18-3.66c-.16-.13-.49,0-.63.09-3.14,2.54-3,7.38-1,10.61,2.61,4.3,7.83,6.2,12.21,8.11,5.33,2.33,10.82,4.55,16.62,5.32,2.69.35,5.59.3,7.23,2.84a8.72,8.72,0,0,1,.9,6.69A23.44,23.44,0,0,1,51,162.37a82.35,82.35,0,0,0-4.39,7.26A72.26,72.26,0,0,0,43,177.44a34.5,34.5,0,0,0-2.33,7.82,8.82,8.82,0,0,0,.93,5.91,6.06,6.06,0,0,0,5.07,2.67c4.85.14,8.37-3.82,11.53-7L89,156.42c.19-.19-.52-.13-.67,0L62.68,181.85l-6.33,6.27c-1.94,1.92-4,4-6.65,4.95s-5.8.31-7.36-2.15c-1.28-2-1.17-4.61-.72-6.88,1-5,3.32-10,5.7-14.51a78.87,78.87,0,0,1,4.33-7.17,27.65,27.65,0,0,0,3.45-6.19c1.24-3.5.81-8.56-3.13-10.14-2.21-.89-4.83-.74-7.15-1.2a51,51,0,0,1-8.27-2.45c-2.92-1.1-5.78-2.36-8.63-3.63a27.11,27.11,0,0,1-7.25-4.26c-3.38-3.06-5.47-9.51-1.29-12.89l-.62.1c6.79,5.6,16.05,6.55,24.44,4.83a68.85,68.85,0,0,0,14.34-4.92c2.3-1,4.6-2.08,6.85-3.21a7.49,7.49,0,0,0,3.88-3.47c.87-2,.3-4.32,0-6.39a26,26,0,0,1,.21-7.88,24.79,24.79,0,0,1,2.36-7.06,4.65,4.65,0,0,1,1.28-1.75,2.55,2.55,0,0,1,2.65,0,5.57,5.57,0,0,1,2.51,2.61c1,2.12,1.15,4.55,2.06,6.71a12.56,12.56,0,0,0,3.5,4.66,18,18,0,0,0,11.94,3.78,58.9,58.9,0,0,0,14.71-2.47A127.62,127.62,0,0,0,124,101.9a22.14,22.14,0,0,1,8.67-2.06c.65,0,1.7-.07,2.16.5a4.15,4.15,0,0,1,.47,1.43,10.4,10.4,0,0,1,.17,3.73c-.62,4.89-4.06,8.57-7.85,11.41-4.14,3.1-8.51,5.9-12.63,9-1.55,1.19-3.75,2.44-4.6,4.29-.95,2.08.26,4.39,1.26,6.2a31.81,31.81,0,0,0,8.54,9.92c3.66,2.8,7.91,4.22,12,6.25s8,5.48,8.22,10.35a7,7,0,0,1-2.83,6,10.22,10.22,0,0,1-8,1.37,52.84,52.84,0,0,1-8-2.54l-8-2.86-15.95-5.72-8-2.86c-.19-.06-.85.23-.58.33Z" transform="translate(-2.14 0.15)"/><path class="cls-1" d="M75.14,121.62a4.81,4.81,0,0,0-.79.9,1.77,1.77,0,0,0-.32,1,1.49,1.49,0,0,0,.4,1,1.41,1.41,0,0,0,1.41.35,1,1,0,0,0,.41-.22.49.49,0,0,0,.19-.33l0-2.57c0-.35-.35-.51-.67-.47a1,1,0,0,0-.54.2.55.55,0,0,0-.25.38l0,2.57.6-.55c-.13,0,.22,0,0,0q.19,0,.12,0c-.06,0,0,0,.09,0,0,0-.14-.07,0,0s0,0,0,0l-.07,0c.06.06.08.07,0,0s0,0,0,0a.82.82,0,0,1-.12-.2l.06.12a1,1,0,0,1-.12-.42v.14a1.48,1.48,0,0,1,0-.21.43.43,0,0,1,0-.11.24.24,0,0,1,0-.08l0,.06s.07-.17.09-.22l.06-.1,0-.07c0,.07-.06.09,0,0a5.8,5.8,0,0,1,.67-.73.42.42,0,0,0-.19-.7,1,1,0,0,0-1,.28Z" transform="translate(-2.14 0.15)"/><path class="cls-1" d="M90.48,118.86a2.64,2.64,0,0,0,.9,4.37,1.09,1.09,0,0,0,.73-.08c.15-.07.43-.23.43-.42a7.83,7.83,0,0,0-.84-3.65c-.15-.29-.55-.3-.84-.22a1,1,0,0,0-.47.26c-.08.08-.2.24-.14.35a7.37,7.37,0,0,1,.83,3.41l1.16-.51-.08,0-.08,0a1.32,1.32,0,0,1-.2-.12s0,0,0,0l-.06-.06-.08-.08-.16-.18c-.06-.08-.11-.16-.16-.24s0,.07,0,0l-.06-.11a2.57,2.57,0,0,1-.16-.54,2,2,0,0,1,0-1,.57.57,0,0,1,0-.14s0-.14,0,0a1,1,0,0,1,.12-.23l.07-.12s.11-.12,0,0a2,2,0,0,1,.21-.2.33.33,0,0,0-.16-.59,1.21,1.21,0,0,0-1,.28Z" transform="translate(-2.14 0.15)"/><path class="cls-1" d="M100.1,131.24a9.82,9.82,0,0,0,.22,3.7c.08.27.54.23.73.19a.93.93,0,0,0,.72-.48,5.14,5.14,0,0,0,.32-3.05c0-.11-.19-.18-.28-.2a1.14,1.14,0,0,0-.55,0c-.22.07-.68.25-.62.56a4.69,4.69,0,0,1-.32,2.84l1.45-.28a9.33,9.33,0,0,1-.22-3.49c0-.32-.41-.35-.63-.31a1.28,1.28,0,0,0-.54.18c-.11.07-.26.17-.28.31Z" transform="translate(-2.14 0.15)"/><path class="cls-1" d="M106.83,139.63a4.63,4.63,0,0,0,.66,3.53c.14.2.5.12.7.08a1.83,1.83,0,0,0,.45-.15c.1-.05.27-.13.3-.25a10.72,10.72,0,0,0,.18-3.53c0-.09-.2-.12-.26-.12a1.35,1.35,0,0,0-.53.06,1.65,1.65,0,0,0-.49.21c-.08.06-.18.13-.17.24a9.85,9.85,0,0,1-.17,3.38l1.44-.31a4.44,4.44,0,0,1-.67-3.38c.06-.26-.45-.2-.59-.18a2.09,2.09,0,0,0-.55.18c-.1.05-.27.13-.3.24Z" transform="translate(-2.14 0.15)"/><path class="cls-1" d="M114.83,146.75a1.81,1.81,0,0,0,1,2.46,1.45,1.45,0,0,0,.85-.1c.14-.06.5-.19.47-.39a6.49,6.49,0,0,0-1.38-3c-.07-.08-.3-.07-.38-.07a1.83,1.83,0,0,0-.56.13c-.15.06-.6.23-.42.45a6.23,6.23,0,0,1,1.29,2.88l1.32-.49-.09,0s-.07,0,0,0l0,0-.06,0a1.64,1.64,0,0,1-.25-.21,1.53,1.53,0,0,1-.33-.53,1.5,1.5,0,0,1,0-1.26c0-.09-.06-.15-.13-.17a1,1,0,0,0-.46,0,2.16,2.16,0,0,0-.56.18.62.62,0,0,0-.29.24Z" transform="translate(-2.14 0.15)"/><path class="cls-1" d="M123.29,154.48a2.16,2.16,0,0,1,0,.57V155a7.33,7.33,0,0,0-.11,1.14.94.94,0,0,0,.59.83,1.36,1.36,0,0,0,.66.08,2.36,2.36,0,0,0,1-.3,1,1,0,0,0,.62-1,1,1,0,0,0-.67-.83,1.46,1.46,0,0,0-1,.17c-.1.06-.25.14-.29.26s0,.16.13.19h.07l.06,0a1.29,1.29,0,0,1,.16.17l0-.07a1,1,0,0,1,.16.57v-.08a.46.46,0,0,1,0,.19l0,.08,0,0s0,0,0,0l0,.06c.07-.06.08-.07,0,0l0,0c.13-.11.1-.06,0,0l.09,0,.12,0,.12,0h.16c-.13,0,.09,0,0,0l-.08,0,0,0h0l-.06,0a.54.54,0,0,1-.15-.15l0,.06a1.15,1.15,0,0,1-.16-.77v.08a4.24,4.24,0,0,0,.06-1.42c0-.1-.18-.13-.26-.14a1.74,1.74,0,0,0-1,.28c-.08.05-.19.14-.16.25Z" transform="translate(-2.14 0.15)"/><path class="cls-1" d="M93.5,112h.91a1,1,0,0,0,.29,0,1.31,1.31,0,0,0,.28-.09.68.68,0,0,0,.23-.14.41.41,0,0,0,.15-.17.27.27,0,0,0,0-.34.55.55,0,0,0-.4-.16H94a.88.88,0,0,0-.28,0,1,1,0,0,0-.29.08.66.66,0,0,0-.22.15.49.49,0,0,0-.16.16.3.3,0,0,0,0,.35.59.59,0,0,0,.4.16Z" transform="translate(-2.14 0.15)"/><path class="cls-1" d="M102.42,111.25l.09,0-.13,0h.06l.18,0-.13,0a1.09,1.09,0,0,1,.33.15l-.09-.06.16.12,0-.17a.41.41,0,0,1,0,.09l0-.1a2.27,2.27,0,0,1-.36.55l.09-.1-.13.12.07,0,0,0,0,0c-.08,0,.17-.08.1,0l0,0,.13,0c-.07,0-.11,0,.12,0H103l-.08,0,.13,0a.69.69,0,0,1-.15-.07l.09.06a.76.76,0,0,1-.23-.24l0,.09a.57.57,0,0,1-.08-.28v.1a.33.33,0,0,1,0-.15l0,.1a.33.33,0,0,1,.06-.1.2.2,0,0,0,0-.28.61.61,0,0,0-.39-.11,1.38,1.38,0,0,0-1,.39.62.62,0,0,0-.13.61,1,1,0,0,0,.45.5,1.47,1.47,0,0,0,1.11,0,2.17,2.17,0,0,0,1-.62,3.67,3.67,0,0,0,.44-.71.17.17,0,0,0-.05-.18,2.08,2.08,0,0,0-2-.33,1.49,1.49,0,0,0-.49.24c-.06.06-.19.19-.15.29a.32.32,0,0,0,.28.18,1.11,1.11,0,0,0,.54,0Z" transform="translate(-2.14 0.15)"/><path class="cls-1" d="M109.53,111l1.13.32a1,1,0,0,0,.45,0,1.23,1.23,0,0,0,.45-.17,1,1,0,0,0,.22-.23.29.29,0,0,0,0-.34l-.83-.93a.6.6,0,0,0-.4-.17,1.24,1.24,0,0,0-.57.11.77.77,0,0,0-.38.31.3.3,0,0,0,0,.35l.84.93,1.09-.74-1.13-.31a1.15,1.15,0,0,0-1,.27c-.08.09-.18.23-.13.36a.39.39,0,0,0,.29.24Z" transform="translate(-2.14 0.15)"/><path class="cls-1" d="M117.2,108.18a2,2,0,0,0,.54.81,1.38,1.38,0,0,0,.45.27,1.9,1.9,0,0,0,.82.07,1.74,1.74,0,0,0,1.22-.63,1.18,1.18,0,0,0,.22-.72.64.64,0,0,0-.46-.58,1.06,1.06,0,0,0-.47,0,1.78,1.78,0,0,0-.55.18c-.09.06-.26.15-.28.27a.19.19,0,0,0,.13.22l.09,0-.09,0a.35.35,0,0,1,.14.13l0-.07a.67.67,0,0,1,.09.36v-.08a.81.81,0,0,1-.12.4l.05-.09a.55.55,0,0,1-.13.17l.1-.09-.05,0s-.11,0,.08-.05l.1,0c-.11,0,.22-.06.12,0s.26,0,.12,0h.08c-.09,0,.19,0,.06,0h-.08l.13,0a1.28,1.28,0,0,1-.27-.11l.09,0a1.53,1.53,0,0,1-.49-.49l0,.08a1.76,1.76,0,0,1-.19-.39.32.32,0,0,0-.27-.15,1.4,1.4,0,0,0-.54,0,1.47,1.47,0,0,0-.49.23c-.07.06-.19.16-.15.27Z" transform="translate(-2.14 0.15)"/><path class="cls-1" d="M77.78,108.05s0,.06,0,.09l0-.14a.82.82,0,0,1-.09.19l.09-.14a.76.76,0,0,1-.11.14l.12-.12a.94.94,0,0,1-.12.09l.16-.09-.12.05.19-.07a.27.27,0,0,1-.12,0l.2,0h-.06a.57.57,0,0,0-.29.07.64.64,0,0,0-.26.13.49.49,0,0,0-.16.19.4.4,0,0,0-.09.21l0,.15a.37.37,0,0,0,.17.24l.14.07a.7.7,0,0,0,.35,0A1.5,1.5,0,0,0,79.25,108a.34.34,0,0,0,0-.22.31.31,0,0,0-.13-.17.67.67,0,0,0-.23-.1.82.82,0,0,0-.27,0l-.2,0a1,1,0,0,0-.35.17.64.64,0,0,0-.24.4Z" transform="translate(-2.14 0.15)"/><path class="cls-1" d="M75.68,105.63c.81,0,1.12-1,.13-1-.82,0-1.12,1-.13,1Z" transform="translate(-2.14 0.15)"/><path class="cls-1" d="M73,99.45c.59,0,1.52-.9.54-.9-.59,0-1.52.9-.54.9Z" transform="translate(-2.14 0.15)"/><path class="cls-1" d="M62.37,122.52l-.31-.32a.3.3,0,0,0-.15-.07,1.68,1.68,0,0,0-.79.1l-.17.08a.76.76,0,0,0-.23.17l0,.09a.13.13,0,0,0,0,.16l.3.32a.33.33,0,0,0,.16.07.55.55,0,0,0,.22,0,1.27,1.27,0,0,0,.28,0A1.4,1.4,0,0,0,62,123l.17-.07a1.3,1.3,0,0,0,.23-.18l0-.09a.14.14,0,0,0,0-.16Z" transform="translate(-2.14 0.15)"/><path class="cls-2" d="M42.91,129.46l0-.06,0,.1a.47.47,0,0,1,.06-.09l-.09.1a.13.13,0,0,1,.07-.06l-.13.09.05,0-.16.08.06,0-.19.06.07,0-.2,0h.07l-.19,0h0l-.13,0,.13,0-.09-.06a.93.93,0,0,1,.14.14l0-.08s0,0,0,.05a.17.17,0,0,0,.1.1.36.36,0,0,0,.18.07,1,1,0,0,0,.25,0,.92.92,0,0,0,.28,0,1.11,1.11,0,0,0,.49-.23l.1-.09a.26.26,0,0,0,.05-.19.7.7,0,0,0-.34-.34,1.18,1.18,0,0,0-.56-.09,2,2,0,0,0-1,.27,1.07,1.07,0,0,0-.45.49c0,.11.06.19.14.23a.52.52,0,0,0,.21,0,.76.76,0,0,0,.26,0,1.49,1.49,0,0,0,.55-.18.59.59,0,0,0,.28-.28Z" transform="translate(-2.14 0.15)"/><path class="cls-2" d="M28,128.47l.6.33a.43.43,0,0,0,.16,0H29a1.28,1.28,0,0,0,.27-.05,1.38,1.38,0,0,0,.29-.08l.17-.07a.73.73,0,0,0,.23-.16l.06-.08a.11.11,0,0,0,0-.13L29.4,128a.43.43,0,0,0-.16,0H29a.84.84,0,0,0-.27,0,1.38,1.38,0,0,0-.29.08l-.17.07a.87.87,0,0,0-.23.16l-.06.08a.1.1,0,0,0,0,.13Z" transform="translate(-2.14 0.15)"/><path class="cls-1" d="M71.39,132.56a3.61,3.61,0,0,0-1.12.49,1.33,1.33,0,0,0-.42.43.85.85,0,0,0-.11.52.79.79,0,0,0,.22.48.62.62,0,0,0,.18.14,1.75,1.75,0,0,0,.64.18,3.26,3.26,0,0,0,.88-.05,5,5,0,0,0,1-.26,4,4,0,0,0,.79-.41,1.51,1.51,0,0,0,.38-.33,1.62,1.62,0,0,0,.36-.67,2.62,2.62,0,0,0,.07-.74v-.07a.27.27,0,0,0-.13-.18L74,132a2.15,2.15,0,0,0-.5-.19,4.22,4.22,0,0,0-1.9.11,3.35,3.35,0,0,0-1,.43.58.58,0,0,0-.25.24.25.25,0,0,0-.08.23l.09.12a.82.82,0,0,0,.43.12,3.49,3.49,0,0,0,1.07-.12l.07,0-.39.08.13,0-.36,0h-.16l.21,0-.26,0a1.19,1.19,0,0,1,.32.1l-.17-.08.2.11-.09-.12a2.17,2.17,0,0,1,0,.44l0-.15a1.48,1.48,0,0,1-.25.7l.12-.16a1.54,1.54,0,0,1-.17.19l.2-.17-.13.09.27-.16-.1,0,.33-.14-.08,0,.38-.12-.08,0,.39-.08h-.09l.36,0h.1l.26,0-.18,0,.17.08a.62.62,0,0,1-.2-.16l.09.12a.69.69,0,0,1-.11-.44l0,.15a.69.69,0,0,1,.11-.28l-.12.16.08-.08-.2.16.05,0-.27.16,0,0-.33.14h0l-.38.12h0a3.5,3.5,0,0,0,.54-.2,1.85,1.85,0,0,0,.44-.23.75.75,0,0,0,.26-.24.27.27,0,0,0,.07-.23l-.09-.12a.82.82,0,0,0-.43-.12,3.23,3.23,0,0,0-1.07.12Z" transform="translate(-2.14 0.15)"/><path class="cls-1" d="M67.3,143.3a2.2,2.2,0,0,0,0,1.14,2.28,2.28,0,0,0,.56,1l.18.09a1.4,1.4,0,0,0,.41,0,3.44,3.44,0,0,0,.91-.12,4,4,0,0,0,.71-.27,1.19,1.19,0,0,0,.58-.5,2.67,2.67,0,0,0,0-2.23.59.59,0,0,0-.53-.26,2.71,2.71,0,0,0-1.06.12,2.82,2.82,0,0,0-1,.43l-.19.17a.35.35,0,0,0-.13.32,2.44,2.44,0,0,1,.26,1.3v-.15a2.51,2.51,0,0,1-.2.76l2.8-.75a1.24,1.24,0,0,1-.18-.22l.09.13a2,2,0,0,1-.35-1.3l0,.15a1.7,1.7,0,0,1,.06-.31c.13-.55-.91-.44-1.19-.39a3.72,3.72,0,0,0-1.1.35l-.28.17a.8.8,0,0,0-.3.33Z" transform="translate(-2.14 0.15)"/><path class="cls-1" d="M61.71,158.93a1.55,1.55,0,0,0,0,.43.58.58,0,0,0,0,.19.75.75,0,0,0,.08.18,2,2,0,0,0,.21.38,1,1,0,0,0,.48.28,1.83,1.83,0,0,0,.7.05,2.74,2.74,0,0,0,.92-.25,2.42,2.42,0,0,0,.7-.48l.06-.07a2,2,0,0,0,.22-.29,1.52,1.52,0,0,0,.16-.4,1.16,1.16,0,0,0,0-.18,1.79,1.79,0,0,0,0-.4,1,1,0,0,0-.17-.37.38.38,0,0,0-.11-.14.69.69,0,0,0-.33-.23,1.12,1.12,0,0,0-.47-.11,1.57,1.57,0,0,0-.57,0,1.63,1.63,0,0,0-.57.17l-.32.18a1.45,1.45,0,0,0-.44.45l-.09.25a.55.55,0,0,0,.12.46.3.3,0,0,1,.11.14l-.11-.22a.54.54,0,0,1,.06.25V159a.84.84,0,0,1,0,.27l.09-.25a.77.77,0,0,1-.1.18l.18-.24-.09.1.26-.21-.09,0,.33-.18-.07,0,.37-.14-.07,0,.39-.07h0l1.17.34a.86.86,0,0,1-.1-.16l.11.22a1.24,1.24,0,0,1-.11-.43v.25a.66.66,0,0,1,0-.14.47.47,0,0,0-.07-.35.48.48,0,0,0-.26-.28,1,1,0,0,0-.44-.14,1.56,1.56,0,0,0-.53,0l-.4.08a2.31,2.31,0,0,0-.7.31l-.25.22a.89.89,0,0,0-.27.48Z" transform="translate(-2.14 0.15)"/><path class="cls-1" d="M55.7,170.26l0,1.32.11.21a.81.81,0,0,0,.34.21.74.74,0,0,0,.3.08,1.57,1.57,0,0,0,.53,0,2.82,2.82,0,0,0,.77-.2,1.48,1.48,0,0,0,.45-.28,1,1,0,0,0,.32-.34,1.8,1.8,0,0,0,.24-.55,1.19,1.19,0,0,0,.06-.37,2.29,2.29,0,0,0-.06-.58.89.89,0,0,0-.08-.17,2.53,2.53,0,0,0-.2-.36.72.72,0,0,0-.33-.21,1.07,1.07,0,0,0-.47-.1,1.75,1.75,0,0,0-.56,0,2.21,2.21,0,0,0-.57.17l-.33.18a1.42,1.42,0,0,0-.44.44l-.09.23a.5.5,0,0,0,.12.44l.07.12-.11-.2a1.19,1.19,0,0,1,.14.52v-.23a1.09,1.09,0,0,1-.08.47l.1-.23a1.71,1.71,0,0,1-.13.23l2.81-.31,0-1.31a.49.49,0,0,0-.21-.29A.77.77,0,0,0,58,169a1.51,1.51,0,0,0-.52,0,1.61,1.61,0,0,0-.57.08l-.38.13a1.88,1.88,0,0,0-.58.38l-.18.23a.57.57,0,0,0-.09.47Z" transform="translate(-2.14 0.15)"/><path class="cls-1" d="M49.44,181.11a1.13,1.13,0,0,0,0,.32l0,0a1.71,1.71,0,0,0,.13.23,1.23,1.23,0,0,0,.25.22l.07.05a2.09,2.09,0,0,0,.35.13,2.4,2.4,0,0,0,.76.05,2.6,2.6,0,0,0,.64-.15,2.32,2.32,0,0,0,.57-.28,1.11,1.11,0,0,0,.55-.74v-.47l0-.62a.37.37,0,0,0-.07-.34.47.47,0,0,0-.25-.27,1.14,1.14,0,0,0-.44-.14,1.87,1.87,0,0,0-.53,0l-.4.08a2.31,2.31,0,0,0-.7.31l-.25.21a1,1,0,0,0-.28.47l0,1.13.27-.47h0l.26-.21,0,0,.32-.18,0,0,.38-.14h0l.39-.07h.29l.33,0h-.06l.27.11-.09,0,.2.16-.06-.08.11.21,0-.09v.21a.41.41,0,0,0-.06-.34.49.49,0,0,0-.26-.27.94.94,0,0,0-.43-.13,1.4,1.4,0,0,0-.54,0l-.39.07a2.31,2.31,0,0,0-.7.31l-.26.21a.9.9,0,0,0-.27.47Z" transform="translate(-2.14 0.15)"/><path class="cls-1" d="M52.93,126.57c.51,0,1.55-.76.58-.76-.51,0-1.55.76-.58.76Z" transform="translate(-2.14 0.15)"/></g><g id="Layer_3" data-name="Layer 3"><path class="cls-1" d="M9.23,197.68,6,169.44c-.35-3.1-.68-6.38.57-9.21,2.23-5.08,8.41-6.56,12.21-10.48,7.82-8.08,2.93-22.26,6.52-33.15,1.91-5.77,6.12-10.32,9.17-15.52,14.85-25.3,1.25-63.48,21.06-84.69,2.87-3.08,8.14-5.37,10.66-2a7.85,7.85,0,0,1,1.22,3.41,33.91,33.91,0,0,1-2.92,20.39c-2.14,4.37-5.23,8.21-7,12.74-1.76,4.37-2.26,9.17-2.74,13.89l-5,49.42c-1.13,11.2-2.46,22.95-8.62,32.17C36.66,153,30,158,27,165.45c-2.8,7.05-1.75,15.14-3.59,22.53s-7.68,13.11-14.17,9.7" transform="translate(-2.14 0.15)"/><path class="cls-1" d="M9.59,197.59,6.76,172.81c-.42-3.7-1.31-7.77-.25-11.43.91-3.15,3.45-5.16,6.1-6.87,2.33-1.49,4.81-2.86,6.7-4.92a16,16,0,0,0,3.51-6.45c1.67-5.73,1.08-11.87,1.4-17.75a33.9,33.9,0,0,1,1.45-8.83,38.19,38.19,0,0,1,5.2-9.47A74.88,74.88,0,0,0,36,99a49.27,49.27,0,0,0,3.09-7.57c3.54-11.1,3.76-22.94,4.46-34.47.69-11.21,1.57-23.07,7-33.13a34.94,34.94,0,0,1,4.61-6.63c1.94-2.21,5-4.68,8.15-4.21,4,.6,4.07,6.12,4.19,9.19A34.29,34.29,0,0,1,66.16,33,42.17,42.17,0,0,1,61.31,43.2a46.1,46.1,0,0,0-4.71,9.09,50.37,50.37,0,0,0-2.12,11.24c-.43,4.07-.83,8.16-1.24,12.24l-2.5,24.71c-.77,7.57-1.38,15.17-2.42,22.71-1,7-2.48,14.11-5.88,20.39C39.29,149.4,34.3,153.76,30.37,159a27.3,27.3,0,0,0-4.32,8.13A48.2,48.2,0,0,0,24.37,178c-.52,6.47-.92,14.45-6.54,18.79a7.57,7.57,0,0,1-8.32.75c-.25-.13-.9.22-.57.39,4.94,2.48,9.8-.06,12.55-4.46,3.8-6.09,3.21-13.75,4.09-20.6A27.72,27.72,0,0,1,29,162.17,53.22,53.22,0,0,1,35.34,154a71.42,71.42,0,0,0,6.08-7.48A40.6,40.6,0,0,0,46,137.13c2.38-7,3.24-14.34,4-21.63q1.29-12.6,2.55-25.22,1.3-12.84,2.6-25.68a58.18,58.18,0,0,1,2-11.73c1.21-3.82,3.4-7.16,5.46-10.56A35.9,35.9,0,0,0,68.2,21.65c-.15-2.81-.24-7.1-3.1-8.62-2.14-1.14-4.8-.3-6.75.82a19.14,19.14,0,0,0-5.69,5.54,38.79,38.79,0,0,0-4.17,7.16,61,61,0,0,0-4.4,16.37C42.36,55,42.71,67.31,41,79.41a65.06,65.06,0,0,1-4.62,17.28c-2.82,6.33-7.77,11.4-10.57,17.72-2.6,5.84-2.35,12.33-2.5,18.58-.15,5.91-.59,12.51-5.06,16.91-4,4-10.73,5.55-12.46,11.55-1,3.55-.21,7.47.2,11.06l1.44,12.63,1.44,12.64c0,.3.77.13.73-.19Z" transform="translate(-2.14 0.15)"/><path class="cls-1" d="M128.84,195.76c-7.48-4.32-7-13.92-4.94-21.46s6.63-14.51,7.92-22.18c1.09-6.46-.19-13,.29-19.55,1.08-14.87,11.19-28.57,11.34-43.48.07-7.81-2.62-15.45-3.09-23.25-.38-6.32.7-12.64,1.78-18.9L149,7.24C149.53,4,151.34-.25,155.18,0c4,.27,4.88,5,4.37,8.46-2.56,17.36-10,34.21-9.84,51.71.16,15.24,6.12,30,8.35,45.1,3.44,23.34-2.34,47.62-16.17,67.92-5,7.29-11,14.3-13,22.56" transform="translate(-2.14 0.15)"/><path class="cls-1" d="M129.18,195.64c-10.58-6.29-5.48-21.25-1.71-30a92.94,92.94,0,0,0,3.69-9.37,35.2,35.2,0,0,0,1.48-10.4c0-3.66-.34-7.32-.27-11a43.61,43.61,0,0,1,1.38-10C136.83,112.54,144,101,143.81,88.06c-.13-7.24-2.43-14.2-3-21.38-.62-7.66.93-15.27,2.22-22.78l3.87-22.55,1.94-11.27c.47-2.73.77-5.67,2.47-8A4.12,4.12,0,0,1,156,.37a4.41,4.41,0,0,1,2.52,2.4c1.06,2.25.82,4.78.44,7.16C157.82,17.05,155.92,24,154.11,31a153.09,153.09,0,0,0-4.25,20.43,73.36,73.36,0,0,0,.72,21.23c2.42,13.92,7.29,27.31,8,41.51a95.07,95.07,0,0,1-6.23,38.46,100.18,100.18,0,0,1-9.11,18.09c-3.55,5.55-7.81,10.63-11.08,16.36a34.42,34.42,0,0,0-3.65,8.75c0,.13.66,0,.71-.13,1.66-6.6,5.66-12.2,9.57-17.64a120.61,120.61,0,0,0,10.87-17.69,96.52,96.52,0,0,0,9.69-38.62,93.87,93.87,0,0,0-1.51-20.22c-1.35-7.34-3.38-14.52-5-21.79S149.9,65.21,150.1,57.8A103.31,103.31,0,0,1,153.51,36c1.75-7.09,3.79-14.11,5.26-21.27.6-2.88,1.44-6,1.25-8.93-.13-2.06-.83-4.46-2.82-5.46a5.27,5.27,0,0,0-5.11.42c-1.88,1.25-2.82,3.58-3.31,5.69-.81,3.51-1.25,7.14-1.86,10.7l-2,11.76c-1.31,7.65-2.72,15.29-3.92,23a73.32,73.32,0,0,0-1.05,11.64,63,63,0,0,0,1.31,11.28A107,107,0,0,1,143,85.92a38.77,38.77,0,0,1-.68,10.53c-1.31,6.55-3.92,12.74-6.21,19-2.21,6-4.17,12.21-4.41,18.66-.15,3.83.22,7.64.24,11.47a35.61,35.61,0,0,1-1.59,11.23c-2.08,6.5-5.6,12.45-7.18,19.12-1.14,4.8-1.63,10.31.6,14.88a12.09,12.09,0,0,0,4.76,5.08c.17.1.76-.2.68-.24Z" transform="translate(-2.14 0.15)"/><path class="cls-1" d="M161.49,197.73c-2.29-10.45,5.31-20.1,8.71-30.21,6.55-19.43-2.49-42.18,5.36-61.06,3.6-8.68,10.52-15.73,12.82-24.88.6-2.36,1.22-5.25,3.44-6,1.92-.61,3.87.9,5.08,2.58,5.46,7.58,3,18.65-1.77,26.76s-11.43,15-14.62,24c-6.73,18.76,3.9,40.82-3.07,59.48-2.69,7.2-9.13,12.23-15.95,9.34" transform="translate(-2.14 0.15)"/><path class="cls-1" d="M161.85,197.63c-1.87-9,3.32-17.37,6.81-25.33a49.13,49.13,0,0,0,3.76-12.72,81.82,81.82,0,0,0,.69-13.28c-.16-9.15-1.19-18.35-.21-27.49A44.24,44.24,0,0,1,176.08,106a88.71,88.71,0,0,1,6.61-11.66,50,50,0,0,0,5.67-11.47c.57-1.86.8-4,1.85-5.64,1.86-3,4.95-.91,6.46,1.22,5,7.1,3,16.89-.61,24.13-3.95,8-10.32,14.43-14.24,22.42-3.85,7.82-4.34,16.45-3.83,25,.54,9,2.06,18,1.43,27a37.79,37.79,0,0,1-2.78,12.45c-1.62,3.71-4.59,7.38-8.63,8.51a9.53,9.53,0,0,1-6.23-.45c-.22-.09-.88.22-.58.34,7.46,3,14.06-2.85,16.6-9.56,3.28-8.67,2.67-18.2,1.86-27.25-.84-9.39-2.12-19.06.07-28.36,2.26-9.62,8.85-17,14.08-25.08,4.52-7,8.16-15.87,5.92-24.28-.83-3.09-3.19-8.31-7.09-8.08s-4.19,5.14-5.06,7.9c-2.8,8.89-9.58,15.8-12.84,24.48-3.38,9-3.16,18.73-2.76,28.15.41,9.7,1.16,19.66-1.36,29.15-2.41,9.09-8.69,17-9.78,26.46a20.23,20.23,0,0,0,.29,6.4c.05.24.78.06.72-.2Z" transform="translate(-2.14 0.15)"/><path class="cls-1" d="M33.79,198.49c2.07-16.17-5.05-32-12.78-46.12S4.5,124,2.81,107.73C.35,84.16,13.3,61.58,13.64,37.87A87.12,87.12,0,0,1,18.43,80c-1.14,8.42-3.52,16.77-3,25.26.94,16.83,12.59,30.52,19.34,45.8a82.11,82.11,0,0,1,6.4,42.14c-.37,3.27-4.48,6.6-7.33,5.26" transform="translate(-2.14 0.15)"/><path class="cls-1" d="M34.15,198.45C37,175.7,22.83,156.05,13,136.85c-5-9.69-9.16-20-10-30.95s1.58-21.59,4.25-32c3-11.84,6.52-23.72,6.73-36l-.72.14a87.17,87.17,0,0,1,5.48,34.37,139.13,139.13,0,0,1-2.37,17.72c-1,5.66-1.81,11.41-1.22,17.16,1,10.25,6,19.48,11,28.32,2.54,4.54,5.14,9.07,7.36,13.79a80.65,80.65,0,0,1,5.54,15.84,82.63,82.63,0,0,1,2.22,19.12,49.72,49.72,0,0,1-.56,9.29c-.52,2.7-3.71,5.94-6.64,4.74-.22-.1-.88.23-.57.35,3.37,1.4,7.31-1.92,7.94-5.17a49.3,49.3,0,0,0,.55-8.84,82.35,82.35,0,0,0-.38-8.6,86.85,86.85,0,0,0-10.34-32.78C26.16,133.74,20,124.5,17.19,114a45.79,45.79,0,0,1-1-17.79c.78-6.26,2.28-12.4,2.94-18.67A87.37,87.37,0,0,0,14,37.77c-.09-.23-.72-.09-.72.15-.39,21.8-11.17,42-11.14,63.8,0,22.48,14,40.58,23.28,60,5.47,11.43,9.58,24,8,36.82,0,.29.7.17.73-.09Z" transform="translate(-2.14 0.15)"/><path class="cls-1" d="M144.67,198.15c-8.92-10-10.69-25-9.06-38.6.47-4,1.25-8.05,3.43-11.33,3.23-4.84,9.2-7.45,11.43-12.88s-.1-12,1.48-17.71a4.44,4.44,0,0,1,1.4-2.46c1.23-.93,3-.5,4.3.28a11,11,0,0,1,4.94,10.91c-.79,5-4.76,8.61-7.5,12.76-4.69,7.1-5.87,16.15-5.6,24.79s1.85,17.18,2.12,25.82a13.2,13.2,0,0,1-.86,6.16c-.9,1.87-4.14,2.77-6.08,2.26" transform="translate(-2.14 0.15)"/><path class="cls-1" d="M145,198c-7.8-8.84-10-21.12-9.5-32.57.25-6,.68-13,4.47-18,3.1-4,8-6.51,10.39-11.11,2.91-5.58.51-12,1.75-17.92.43-2,1.47-4,3.9-3.36a8.17,8.17,0,0,1,4,2.89,11.05,11.05,0,0,1,2.33,7.89c-.61,5.81-5.65,9.83-8.42,14.63-3,5.19-4.29,11.21-4.67,17.15-.48,7.51.55,15,1.32,22.45a73.38,73.38,0,0,1,.7,12.21c-.11,1.67-.4,3.64-1.84,4.69a5.89,5.89,0,0,1-4.59.91c-.36-.08-.73.42-.25.52a6.71,6.71,0,0,0,5.84-1.53c2.1-2,1.66-6,1.53-8.64-.37-7.82-1.69-15.56-2-23.38-.28-6.81.21-13.84,2.73-20.23a35.19,35.19,0,0,1,5-8.52,28.7,28.7,0,0,0,4.7-7.49c1.79-5-.08-11.54-5.19-13.77-7-3.07-6.18,8.41-6.06,12.19.1,3.39,0,6.85-1.78,9.84-1.55,2.59-4,4.51-6.18,6.49a22.45,22.45,0,0,0-5.31,6.26,28.31,28.31,0,0,0-2.55,9.52c-1.68,13.4-.25,28.64,9.05,39.16.22.25.91,0,.66-.32Z" transform="translate(-2.14 0.15)"/></g></svg>