<svg xmlns="http://www.w3.org/2000/svg" viewBox="0 0 265.08 265.07"><defs><style>.cls-1{fill:#4b4ea1;}.cls-2{fill:#4a494a;}.cls-3{fill:#96b6e0;}.cls-4{fill:none;stroke:#40459c;stroke-miterlimit:10;}</style></defs><g id="Layer_2" data-name="Layer 2"><path class="cls-1" d="M152.89,142.92c5.19-4.38,9.1-11.51,17.37-12.51,12.23-1.48,26.79,7.6,34.79,18.58a73,73,0,0,1-144.21-16.2c0-.26,0-.52,0-.77C118.64,155.8,142.28,151.87,152.89,142.92Z" transform="translate(-0.25 -0.25)"/><path class="cls-2" d="M205.05,149a73,73,0,1,0-144.2-17c0,.25,0,.51,0,.77A73,73,0,0,0,205.05,149Zm60.28-33.83v35.26l-25.65,3.25a108.06,108.06,0,0,1-12.85,34.06L246,211.85l-24.64,25.22-23-17.35a108.3,108.3,0,0,1-44.7,20l-3.26,25.64H115.16l-3.26-25.64a108.21,108.21,0,0,1-37.8-15.14L51.43,242.68,26.1,218.15,43.43,195a108.24,108.24,0,0,1-17.54-41.36L.25,150.41V115.16l25.64-3.26A108.26,108.26,0,0,1,43.58,70.32L26,48.23,50.67,23,74.33,40.89a108.28,108.28,0,0,1,37.57-15L115.16.25h35.26l3.26,25.64a108.32,108.32,0,0,1,37.08,14.7L212.8,23l25.33,24.53L221.52,69.64a108.29,108.29,0,0,1,18.17,42.26Z" transform="translate(-0.25 -0.25)"/><path class="cls-3" d="M170.26,130.41c-8.27,1-12.18,8.13-17.37,12.51-10.61,9-34.25,12.88-92-10.9a73,73,0,1,1,144.2,17C197.05,138,182.49,128.93,170.26,130.41Z" transform="translate(-0.25 -0.25)"/><line class="cls-4" x1="60.59" y1="131.77" x2="60.6" y2="131.77"/><path class="cls-4" d="M205.06,149h0c-8-11-22.56-20.06-34.79-18.58-8.27,1-12.18,8.13-17.37,12.51-10.61,9-34.25,12.88-92-10.9" transform="translate(-0.25 -0.25)"/></g></svg>