<svg id="Layer_2" data-name="Layer 2" xmlns="http://www.w3.org/2000/svg" viewBox="0 0 200.46 200.72"><defs><style>.cls-1{fill:#231f20;}.cls-2{fill:none;stroke:#fff;stroke-miterlimit:10;stroke-width:0.5px;}</style></defs><path class="cls-1" d="M135.77,58c.31,3.17,3.34,4.05,5.24,2.54s3.13-4.37,4.8-6.41c3.76-4.61,9.15-4.46,14-4.06.19,2.23.39,4.47.58,6.71a104.72,104.72,0,0,0,28.19-18.9c1.84-1.7,3.71-3.51,5.84-4s4.62.62,5.56,3.52l-.31.48a69.74,69.74,0,0,1-9.69,11c-2.92,2.66-6,4.94-8.91,7.63-2.53,2.34-4.92,5-7.32,7.63q-7.44,8.23-14.9,16.46c-9.17,10.13-18.38,20.3-26.64,32.06-5.85,8.33-11.37,17.85-13.58,29.44.7,1.71,2.2,2.95,3.14,1.52s1.38-3.46,2.27-5a6.51,6.51,0,0,1,6-3.13c2.19,0,4.38.6,6.55.12,5.08-1.12,8.7-7.65,11.82-13.72q3.67-7.14,7.34-14.28c1.21-2.36,2.48-4.79,4.22-6.24s4.9-1.8,6.42.13V102q-3,8.85-6,17.7c-7,22.68-17.18,43.14-29.78,59.57-1.52,2-3.18,4.18-3.44,7.15-.51,5.6,3.89,9,6.08,13.63h-82v-.09c5.26-11.64,6.7-24.73,7-37.37.23-11.35,1-25.29-4-35.82-5.07-7.45-18.55-23.21-25.38-29-7.36-6.23-11.69-15.82-16.56-24a2.64,2.64,0,0,1-.23-.35l-.56-1.06-.07,0A100.79,100.79,0,0,1,.62,43.78h0a13.57,13.57,0,0,1-.56-3.35h0c-.51-3.37,2.1-10.18,6.44-6.79,3.11,2.43,1,8.21,5.5,9.53,3.69,1.09,9.67-2.82,10.82,2.82.39,2-.34,3.6.54,5.61A14.84,14.84,0,0,0,27,56.19l.15.18a1.79,1.79,0,0,1,.57.86,4.37,4.37,0,0,0,.17.62,2.36,2.36,0,0,0,.26.36,3.31,3.31,0,0,1,.25.3l.1.11c1.79,2.25,4,4.18,5.69,6.51,1.85,2.51,2.63,5.31,3.41,8.29s1.31,4.83,4,6.25a30.32,30.32,0,0,0,7,2.76c9.74,2.24,7.62-11.66,9.45-17.65.93-3.07,4.07-7.45,7.91-6.09,3,1.07,6.26,10.52,10.37,5.43,2.68-3.32.42-11.34-.15-15.13-.67-4.56-2-12.19,1.21-16.13,4.13-5.08,5.86,5.32,6.88,7.71,2.36,5.52,7.81,3.69,12.29,2.06l.26,0a8.9,8.9,0,0,1,5.35-1.77.6.6,0,0,1,.54.26.57.57,0,0,1,0,.26c0,.61,0,1.22,0,1.83a7.92,7.92,0,0,0-1.65,5h0C100,51,102,54,103,54c8,3,11-7,14-13s2-15,8-19c5,3,12,3,16-2,8-10,19-22,33-20,2,1,4,3,4,5,0,9-3,20-9,27-2,2-4,3-5,5-4,4-10,5-15,7-8,2-18,1-22,10-5,10-10,19-17,28-8.89,13.82-14.85,30.57-10.55,46.33l.25-.07c4.09-1.16,8.69-2.84,10.74-8.22,1.12-2.94,1.25-6.5,2.19-9.57,3.59-11.76,16.38-11,20.54-22.37,3.4-9.26-1-20.67-.12-31.14.13-1.68,1-3.82,2-3S135.62,56.55,135.77,58Z" transform="translate(0.22 0.47)"/><path class="cls-2" d="M133.29,200c-2.19-4.62-6.59-8-6.08-13.63.26-3,1.92-5.17,3.44-7.15,12.6-16.43,22.83-36.89,29.78-59.57q3-8.85,6-17.7" transform="translate(0.22 0.47)"/><path class="cls-2" d="M166.41,101.52c-1.52-1.93-4.68-1.59-6.42-.13s-3,3.88-4.22,6.24q-3.66,7.14-7.34,14.28c-3.12,6.07-6.74,12.6-11.82,13.72-2.17.48-4.36-.11-6.55-.12a6.51,6.51,0,0,0-6,3.13c-.89,1.5-1.33,3.52-2.27,5s-2.44.19-3.14-1.52" transform="translate(0.22 0.47)"/><path class="cls-2" d="M118.65,142.08c2.21-11.59,7.73-21.11,13.58-29.44,8.26-11.76,17.47-21.93,26.64-32.06q7.45-8.23,14.9-16.46c2.4-2.64,4.79-5.29,7.32-7.63,2.91-2.69,6-5,8.91-7.63a69.74,69.74,0,0,0,9.69-11" transform="translate(0.22 0.47)"/><path class="cls-2" d="M200,37.38c-.94-2.9-3.43-4-5.56-3.52s-4,2.33-5.84,4a104.72,104.72,0,0,1-28.19,18.9c-.19-2.24-.39-4.48-.58-6.71-4.87-.4-10.26-.55-14,4.06-1.67,2-2.89,4.9-4.8,6.41s-4.93.63-5.24-2.54c-.15-1.46.19-3.41-.69-4.09s-1.9,1.36-2,3c-.85,10.47,3.52,21.88.12,31.14-4.16,11.33-16.95,10.61-20.54,22.37-.94,3.07-1.07,6.63-2.19,9.57-2,5.38-6.65,7.06-10.74,8.22" transform="translate(0.22 0.47)"/><path class="cls-2" d="M.62,43.78a100.79,100.79,0,0,0,10.8,28.58l0,.07" transform="translate(0.22 0.47)"/><path class="cls-2" d="M28.41,58.51l-.29-.37" transform="translate(0.22 0.47)"/><path class="cls-2" d="M96.64,42.63c-4.48,1.63-9.93,3.46-12.29-2.06-1-2.39-2.75-12.79-6.88-7.71C74.25,36.8,75.59,44.43,76.26,49c.57,3.79,2.83,11.81.15,15.13C72.3,69.21,69.05,59.76,66,58.69c-3.84-1.36-7,3-7.91,6.09-1.83,6,.29,19.89-9.45,17.65a30.32,30.32,0,0,1-7-2.76c-2.73-1.42-3.28-3.37-4-6.25s-1.56-5.78-3.41-8.29c-1.72-2.33-3.9-4.26-5.69-6.51" transform="translate(0.22 0.47)"/><path class="cls-2" d="M99.61,128.93c-.06-.2-.11-.4-.16-.6C95.15,112.57,101.11,95.82,110,82c7-9,12-18,17-28,4-9,14-8,22-10,5-2,11-3,15-7,1-2,3-3,5-5,6-7,9-18,9-27,0-2-2-4-4-5-14-2-25,10-33,20-4,5-11,5-16,2-6,4-5,13-8,19s-6,16-14,13c-1,0-3-3-1.8-5.81a.14.14,0,0,1,0-.06" transform="translate(0.22 0.47)"/><path class="cls-2" d="M12.12,73.46l.16.27c4.87,8.18,9.2,17.77,16.56,24,6.83,5.78,20.31,21.54,25.38,29" transform="translate(0.22 0.47)"/><polyline class="cls-2" points="133.51 200.47 51.46 200.47 50.73 200.47"/><path class="cls-2" d="M54.22,126.72c5,10.53,4.21,24.47,4,35.82-.26,12.64-1.7,25.73-7,37.37" transform="translate(0.22 0.47)"/><path class="cls-2" d="M27,56.19a14.84,14.84,0,0,1-3.62-4.59c-.88-2-.15-3.65-.54-5.61C21.7,40.35,15.72,44.26,12,43.17c-4.48-1.32-2.39-7.1-5.5-9.53C2.19,30.25-.42,37.06.09,40.43a2,2,0,0,0,0,.26" transform="translate(0.22 0.47)"/><path class="cls-2" d="M.63,43.79h0a13.57,13.57,0,0,1-.56-3.35" transform="translate(0.22 0.47)"/><path class="cls-2" d="M12.34,73.81l-.06-.08a2.64,2.64,0,0,1-.23-.35l-.56-1.06" transform="translate(0.22 0.47)"/><path class="cls-2" d="M28.51,58.62l-.1-.11a3.31,3.31,0,0,0-.25-.3,2.36,2.36,0,0,1-.26-.36,4.37,4.37,0,0,1-.17-.62,1.79,1.79,0,0,0-.57-.86" transform="translate(0.22 0.47)"/><path class="cls-2" d="M101.19,48.19a7.92,7.92,0,0,1,1.65-5c0-.61,0-1.22,0-1.83a.57.57,0,0,0,0-.26.6.6,0,0,0-.54-.26,8.9,8.9,0,0,0-5.35,1.77" transform="translate(0.22 0.47)"/></svg>