<svg xmlns="http://www.w3.org/2000/svg" viewBox="0 0 201.6 200"><defs><style>.cls-1,.cls-3{fill:none;}.cls-2{fill:#231f20;}.cls-3{stroke:#fff;stroke-miterlimit:10;stroke-width:0.5px;}.cls-4{fill:#fff;}</style></defs><g id="Layer_4" data-name="Layer 4"><rect class="cls-1" x="0.22" width="200" height="200"/></g><g id="Layer_3" data-name="Layer 3"><path class="cls-2" d="M4.67,94.76A5.22,5.22,0,0,1,.05,94c-.22-2.58,1.53-4.73,3.19-6.37C9,81.91,15.38,77.28,21.74,72.66a46.76,46.76,0,0,1,8.55-5.3c2.13-.92,4.35-1.47,6.53-2.17a107.9,107.9,0,0,0,14.83-6c3.92-5.56,10.75-6,16.77-6,8.36,0,16.81,0,24.94,2.42,4.16,1.22,8.19,3,12.36,4.15,3.72,1,7.56,1.4,11.12,3,2.49,1.13,4.77,2.81,7.18,4.14,9.06,5,20.16,5.47,27.27,13.94l.05,0A34.72,34.72,0,0,1,156.75,88a15.89,15.89,0,0,0-7.93,0,6.84,6.84,0,0,0-3.57,1.93.86.86,0,0,0-.28.62.84.84,0,0,0,.41.57,13.26,13.26,0,0,0,3,1.56A257.13,257.13,0,0,1,192,87.89c3.12-.09,6.41-.07,9.16,1.76-.34,3.35-4,4-6.55,5.34-2.71,1.47-4.66,4.83-4.9,8.42a11.26,11.26,0,0,0,3.71,9.28c.84.67,1.89,1.33,2,2.54.23,1.71-1.45,2.79-2.84,3.21a34.22,34.22,0,0,1-7.74,1.4c-7.45.48-16.64-2.2-23.92-4.19-1.8,1-4,2.33-5.77,3.37l-10.73,6.24a101.82,101.82,0,0,1-11.68,6.14,46.21,46.21,0,0,1-32.92,1.09l-14.14,1.29c-1.87.17-3.74.34-5.61.33a56.35,56.35,0,0,1-8.94-1.06c-.41,4.88,2.08,10,2.49,14.93a2.48,2.48,0,0,1-.05,1c-.26.88-1.19,1.06-2,1.08a17.6,17.6,0,0,1-9.25-1.81c-3.69-2.06-6.37-6-8.92-9.87a23.77,23.77,0,0,1-2.79-5.08l0,0a35.32,35.32,0,0,1-5-2.33l-19.52-10.4a60.11,60.11,0,0,1-7.93-4.76c-4-3-7.45-7-11.66-9.49a17.12,17.12,0,0,1-4.15-2.8A5.47,5.47,0,0,1,1,98.35l0-.08,2.67-1a2.28,2.28,0,0,0,1.27-.85c.3-.47.27-1.29-.18-1.54Z" transform="translate(0.22)"/><path class="cls-3" d="M160.92,115.65c7.28,2,16.47,4.67,23.92,4.19a34.22,34.22,0,0,0,7.74-1.4c1.39-.42,3.07-1.5,2.84-3.21-.15-1.21-1.2-1.87-2-2.54a11.26,11.26,0,0,1-3.71-9.28c.24-3.59,2.19-7,4.9-8.42,2.53-1.38,6.21-2,6.55-5.34-2.75-1.83-6-1.85-9.16-1.76a257.13,257.13,0,0,0-43.6,4.75" transform="translate(0.22)"/><path class="cls-3" d="M148.36,92.64a13.26,13.26,0,0,1-3-1.56.84.84,0,0,1-.41-.57.86.86,0,0,1,.28-.62A6.84,6.84,0,0,1,148.82,88a15.89,15.89,0,0,1,7.93,0,34.72,34.72,0,0,0-5.41-7.08" transform="translate(0.22)"/><path class="cls-3" d="M151.29,80.86c-7.11-8.47-18.21-8.92-27.27-13.94-2.41-1.33-4.69-3-7.18-4.14-3.56-1.61-7.4-2-11.12-3-4.17-1.11-8.2-2.93-12.36-4.15-8.13-2.38-16.58-2.41-24.94-2.42-6,0-12.85.41-16.77,6" transform="translate(0.22)"/><path class="cls-3" d="M51.65,59.17a107.9,107.9,0,0,1-14.83,6c-2.18.7-4.4,1.25-6.53,2.17a46.76,46.76,0,0,0-8.55,5.3C15.38,77.28,9,81.91,3.24,87.59,1.58,89.23-.17,91.38.05,94" transform="translate(0.22)"/><path class="cls-3" d="M.05,94a5.22,5.22,0,0,0,4.62.8l.07,0" transform="translate(0.22)"/><path class="cls-3" d="M4.71,94.87c.45.25.48,1.07.18,1.54a2.28,2.28,0,0,1-1.27.85L1,98.27" transform="translate(0.22)"/><path class="cls-3" d="M1,98.35a5.47,5.47,0,0,0,1.37,5.17,17.12,17.12,0,0,0,4.15,2.8c4.21,2.49,7.66,6.52,11.66,9.49a60.11,60.11,0,0,0,7.93,4.76L45.61,131a35.32,35.32,0,0,0,5,2.33" transform="translate(0.22)"/><path class="cls-3" d="M50.63,133.23l0,.05a23.77,23.77,0,0,0,2.79,5.08c2.55,3.84,5.23,7.81,8.92,9.87A17.6,17.6,0,0,0,71.61,150c.77,0,1.7-.2,2-1.08a2.48,2.48,0,0,0,.05-1c-.41-4.88-2.9-10-2.49-14.93" transform="translate(0.22)"/><path class="cls-3" d="M71.13,133.05a56.35,56.35,0,0,0,8.94,1.06c1.87,0,3.74-.16,5.61-.33l14.14-1.29" transform="translate(0.22)"/><path class="cls-3" d="M99.82,132.49a46.21,46.21,0,0,0,32.92-1.09,101.82,101.82,0,0,0,11.68-6.14L155.15,119c1.8-1,4-2.32,5.77-3.37" transform="translate(0.22)"/></g><g id="Layer_2" data-name="Layer 2"><path class="cls-4" d="M103.46,131.27q21.69-7.56,42.94-16.31c.47-.19,0-.43-.28-.3q-21.24,8.75-42.95,16.31c-.47.17,0,.41.29.3Z" transform="translate(0.22)"/><path class="cls-4" d="M54.3,59.91a105.16,105.16,0,0,1,36.33,1.75,78.36,78.36,0,0,1,17,5.54c5.25,2.57,10,6.27,14.81,9.56,5.59,3.82,11.25,7.58,16.3,12.12.2.17.88-.11.68-.29A134.15,134.15,0,0,0,125.2,77.91c-5.11-3.5-10.13-7.37-15.58-10.33-5.17-2.8-11-4.49-16.7-5.88A105.15,105.15,0,0,0,54.4,59.5c-.36,0-.6.47-.1.41Z" transform="translate(0.22)"/><path class="cls-4" d="M43.46,104.34A210.94,210.94,0,0,0,62.14,89c3-2.72,5.75-5.58,8.63-8.37S76.87,75,81,75.2c.32,0,.75-.45.26-.48-3.41-.19-6.35,1.59-8.87,3.72-3.1,2.63-5.84,5.69-8.79,8.48A210.87,210.87,0,0,1,43,104.06c-.4.29.21.47.47.28Z" transform="translate(0.22)"/><path class="cls-4" d="M80.79,75.1c1.47,1.74,1.14,4.27,1.32,6.39a15.23,15.23,0,0,0,2,6.5,13.25,13.25,0,0,0,1.56,2.15,12.3,12.3,0,0,1,1,1,5.32,5.32,0,0,1,.33,2.58c.08,2.65,0,5.35.38,8a12.93,12.93,0,0,0,.86,3.45,18.06,18.06,0,0,1,1.52,3.09c.4,1.87-1.37,2.31-2.78,2.8s-2.92,1-4.4,1.38a90.88,90.88,0,0,1-16.43,3.11,89.4,89.4,0,0,1-18.86-.22c-.22,0-.85.34-.45.39a91.69,91.69,0,0,0,34.47-2.55c1.44-.39,2.87-.82,4.29-1.28a25.11,25.11,0,0,0,3.8-1.32c2.14-1.1.73-3.34-.08-4.86-1.28-2.39-1.36-5.21-1.46-7.86,0-1.44-.09-2.87-.14-4.31a8,8,0,0,0-.08-2.4c-.17-.37-.79-.71-1.08-1a14.52,14.52,0,0,1-3.68-7.84c-.36-2.44.23-5.44-1.48-7.47-.16-.19-.85.07-.67.28Z" transform="translate(0.22)"/></g></svg>